<mxfile host="app.diagrams.net" agent="Mozilla/5.0 (Windows NT 10.0; Win64; x64) AppleWebKit/537.36 (KHTML, like Gecko) Chrome/134.0.0.0 Safari/537.36 Edg/134.0.0.0" version="24.9.0">
  <diagram name="Page-1" id="lMtklm4bLaq4yYIlgRWJ">
    <mxGraphModel dx="1962" dy="477" grid="1" gridSize="10" guides="1" tooltips="1" connect="1" arrows="1" fold="1" page="1" pageScale="1" pageWidth="850" pageHeight="1100" math="0" shadow="0">
      <root>
        <mxCell id="0" />
        <mxCell id="1" parent="0" />
        <mxCell id="r9i5RmeznnZlQhOlYAuz-29" value="" style="rounded=0;whiteSpace=wrap;html=1;" parent="1" vertex="1">
          <mxGeometry x="350" y="120" width="180" height="320" as="geometry" />
        </mxCell>
        <mxCell id="r9i5RmeznnZlQhOlYAuz-21" style="edgeStyle=orthogonalEdgeStyle;rounded=0;orthogonalLoop=1;jettySize=auto;html=1;entryX=0;entryY=0.5;entryDx=0;entryDy=0;" parent="1" source="r9i5RmeznnZlQhOlYAuz-10" target="r9i5RmeznnZlQhOlYAuz-14" edge="1">
          <mxGeometry relative="1" as="geometry" />
        </mxCell>
        <mxCell id="r9i5RmeznnZlQhOlYAuz-23" style="edgeStyle=orthogonalEdgeStyle;rounded=0;orthogonalLoop=1;jettySize=auto;html=1;" parent="1" source="r9i5RmeznnZlQhOlYAuz-10" target="r9i5RmeznnZlQhOlYAuz-16" edge="1">
          <mxGeometry relative="1" as="geometry" />
        </mxCell>
        <mxCell id="r9i5RmeznnZlQhOlYAuz-10" value="" style="rounded=0;whiteSpace=wrap;html=1;fillColor=#fff2cc;strokeColor=#d6b656;" parent="1" vertex="1">
          <mxGeometry x="121" y="130" width="120" height="290" as="geometry" />
        </mxCell>
        <mxCell id="r9i5RmeznnZlQhOlYAuz-20" style="edgeStyle=orthogonalEdgeStyle;rounded=0;orthogonalLoop=1;jettySize=auto;html=1;" parent="1" edge="1">
          <mxGeometry relative="1" as="geometry">
            <mxPoint x="110" y="250" as="targetPoint" />
            <mxPoint x="15" y="250" as="sourcePoint" />
          </mxGeometry>
        </mxCell>
        <mxCell id="r9i5RmeznnZlQhOlYAuz-14" value="User Service" style="whiteSpace=wrap;html=1;aspect=fixed;fillColor=#dae8fc;strokeColor=#6c8ebf;" parent="1" vertex="1">
          <mxGeometry x="400" y="130" width="80" height="80" as="geometry" />
        </mxCell>
        <mxCell id="r9i5RmeznnZlQhOlYAuz-16" value="Leave Service" style="whiteSpace=wrap;html=1;aspect=fixed;fillColor=#d5e8d4;strokeColor=#82b366;" parent="1" vertex="1">
          <mxGeometry x="400" y="340" width="80" height="80" as="geometry" />
        </mxCell>
        <mxCell id="r9i5RmeznnZlQhOlYAuz-30" style="edgeStyle=orthogonalEdgeStyle;rounded=0;orthogonalLoop=1;jettySize=auto;html=1;" parent="1" source="reItq1uxvdhWXAtUSL_b-4" edge="1">
          <mxGeometry relative="1" as="geometry">
            <mxPoint y="290" as="targetPoint" />
          </mxGeometry>
        </mxCell>
        <mxCell id="r9i5RmeznnZlQhOlYAuz-31" value="Email" style="edgeLabel;html=1;align=center;verticalAlign=middle;resizable=0;points=[];" parent="r9i5RmeznnZlQhOlYAuz-30" vertex="1" connectable="0">
          <mxGeometry x="0.2254" y="1" relative="1" as="geometry">
            <mxPoint y="-1" as="offset" />
          </mxGeometry>
        </mxCell>
        <mxCell id="r9i5RmeznnZlQhOlYAuz-17" value="Notification Service" style="rhombus;whiteSpace=wrap;html=1;fillColor=#e1d5e7;strokeColor=#9673a6;" parent="1" vertex="1">
          <mxGeometry x="141" y="470" width="80" height="80" as="geometry" />
        </mxCell>
        <mxCell id="r9i5RmeznnZlQhOlYAuz-18" value="" style="verticalLabelPosition=bottom;html=1;verticalAlign=top;align=center;strokeColor=none;fillColor=#00BEF2;shape=mxgraph.azure.queue_generic;pointerEvents=1;" parent="1" vertex="1">
          <mxGeometry y="490" width="50" height="15" as="geometry" />
        </mxCell>
        <mxCell id="r9i5RmeznnZlQhOlYAuz-32" value="" style="endArrow=none;dashed=1;html=1;dashPattern=1 3;strokeWidth=2;rounded=0;" parent="1" edge="1">
          <mxGeometry width="50" height="50" relative="1" as="geometry">
            <mxPoint x="222" y="510.5" as="sourcePoint" />
            <mxPoint x="441" y="511" as="targetPoint" />
          </mxGeometry>
        </mxCell>
        <mxCell id="r9i5RmeznnZlQhOlYAuz-33" value="" style="endArrow=none;dashed=1;html=1;dashPattern=1 3;strokeWidth=2;rounded=0;exitX=0.625;exitY=0.988;exitDx=0;exitDy=0;exitPerimeter=0;" parent="1" edge="1">
          <mxGeometry width="50" height="50" relative="1" as="geometry">
            <mxPoint x="443" y="419.03999999999996" as="sourcePoint" />
            <mxPoint x="444" y="510" as="targetPoint" />
          </mxGeometry>
        </mxCell>
        <mxCell id="reItq1uxvdhWXAtUSL_b-1" value="" style="outlineConnect=0;dashed=0;verticalLabelPosition=bottom;verticalAlign=top;align=center;html=1;shape=mxgraph.aws3.api_gateway;fillColor=#D9A741;gradientColor=none;" vertex="1" parent="1">
          <mxGeometry x="141" y="203.5" width="76.5" height="93" as="geometry" />
        </mxCell>
        <mxCell id="reItq1uxvdhWXAtUSL_b-2" value="API Gateway" style="rounded=1;whiteSpace=wrap;html=1;" vertex="1" parent="1">
          <mxGeometry x="146.5" y="310" width="71" height="36.5" as="geometry" />
        </mxCell>
        <mxCell id="reItq1uxvdhWXAtUSL_b-3" value="" style="fontColor=#0066CC;verticalAlign=top;verticalLabelPosition=bottom;labelPosition=center;align=center;html=1;outlineConnect=0;fillColor=#CCCCCC;strokeColor=#6881B3;gradientColor=none;gradientDirection=north;strokeWidth=2;shape=mxgraph.networks.pc;" vertex="1" parent="1">
          <mxGeometry x="-86" y="210" width="100" height="70" as="geometry" />
        </mxCell>
        <mxCell id="reItq1uxvdhWXAtUSL_b-5" value="Database User" style="image;aspect=fixed;perimeter=ellipsePerimeter;html=1;align=center;shadow=0;dashed=0;spacingTop=3;image=img/lib/active_directory/database.svg;" vertex="1" parent="1">
          <mxGeometry x="630" y="90" width="175.68" height="130" as="geometry" />
        </mxCell>
        <mxCell id="reItq1uxvdhWXAtUSL_b-8" value="" style="endArrow=classic;html=1;rounded=0;exitX=1;exitY=0.5;exitDx=0;exitDy=0;entryX=0.014;entryY=0.57;entryDx=0;entryDy=0;entryPerimeter=0;exitPerimeter=0;" edge="1" parent="1" source="r9i5RmeznnZlQhOlYAuz-14" target="reItq1uxvdhWXAtUSL_b-5">
          <mxGeometry width="50" height="50" relative="1" as="geometry">
            <mxPoint x="520" y="195" as="sourcePoint" />
            <mxPoint x="590" y="170" as="targetPoint" />
          </mxGeometry>
        </mxCell>
        <mxCell id="reItq1uxvdhWXAtUSL_b-9" value="Leave Database" style="image;aspect=fixed;perimeter=ellipsePerimeter;html=1;align=center;shadow=0;dashed=0;spacingTop=3;image=img/lib/active_directory/database.svg;" vertex="1" parent="1">
          <mxGeometry x="669.59" y="330" width="148.65" height="110" as="geometry" />
        </mxCell>
        <mxCell id="reItq1uxvdhWXAtUSL_b-10" value="" style="endArrow=classic;html=1;rounded=0;exitX=1;exitY=0.75;exitDx=0;exitDy=0;entryX=0.009;entryY=0.645;entryDx=0;entryDy=0;entryPerimeter=0;" edge="1" parent="1" source="r9i5RmeznnZlQhOlYAuz-16" target="reItq1uxvdhWXAtUSL_b-9">
          <mxGeometry width="50" height="50" relative="1" as="geometry">
            <mxPoint x="310" y="350" as="sourcePoint" />
            <mxPoint x="660" y="400" as="targetPoint" />
          </mxGeometry>
        </mxCell>
        <mxCell id="reItq1uxvdhWXAtUSL_b-11" value="Notification Database" style="image;aspect=fixed;perimeter=ellipsePerimeter;html=1;align=center;shadow=0;dashed=0;spacingTop=3;image=img/lib/active_directory/database.svg;" vertex="1" parent="1">
          <mxGeometry x="117.43" y="615" width="135.14" height="100" as="geometry" />
        </mxCell>
        <mxCell id="reItq1uxvdhWXAtUSL_b-12" value="" style="endArrow=classic;html=1;rounded=0;exitX=0.5;exitY=1;exitDx=0;exitDy=0;" edge="1" parent="1" source="r9i5RmeznnZlQhOlYAuz-17">
          <mxGeometry width="50" height="50" relative="1" as="geometry">
            <mxPoint x="310" y="520" as="sourcePoint" />
            <mxPoint x="180" y="620" as="targetPoint" />
          </mxGeometry>
        </mxCell>
        <mxCell id="reItq1uxvdhWXAtUSL_b-13" value="" style="endArrow=classic;html=1;rounded=0;exitX=0.75;exitY=1;exitDx=0;exitDy=0;" edge="1" parent="1" source="r9i5RmeznnZlQhOlYAuz-14" target="reItq1uxvdhWXAtUSL_b-14">
          <mxGeometry width="50" height="50" relative="1" as="geometry">
            <mxPoint x="310" y="380" as="sourcePoint" />
            <mxPoint x="530" y="560" as="targetPoint" />
          </mxGeometry>
        </mxCell>
        <mxCell id="reItq1uxvdhWXAtUSL_b-14" value="Register User and Appointment Creation" style="rounded=1;whiteSpace=wrap;html=1;" vertex="1" parent="1">
          <mxGeometry x="470" y="530" width="120" height="60" as="geometry" />
        </mxCell>
        <mxCell id="reItq1uxvdhWXAtUSL_b-15" value="" style="endArrow=classic;html=1;rounded=0;exitX=0;exitY=0.5;exitDx=0;exitDy=0;entryX=1;entryY=1;entryDx=0;entryDy=0;" edge="1" parent="1" source="reItq1uxvdhWXAtUSL_b-14" target="r9i5RmeznnZlQhOlYAuz-17">
          <mxGeometry width="50" height="50" relative="1" as="geometry">
            <mxPoint x="310" y="500" as="sourcePoint" />
            <mxPoint x="420" y="580" as="targetPoint" />
          </mxGeometry>
        </mxCell>
        <mxCell id="reItq1uxvdhWXAtUSL_b-16" value="" style="edgeStyle=orthogonalEdgeStyle;rounded=0;orthogonalLoop=1;jettySize=auto;html=1;" edge="1" parent="1" source="r9i5RmeznnZlQhOlYAuz-17" target="reItq1uxvdhWXAtUSL_b-4">
          <mxGeometry relative="1" as="geometry">
            <mxPoint y="290" as="targetPoint" />
            <mxPoint x="141" y="510" as="sourcePoint" />
          </mxGeometry>
        </mxCell>
        <mxCell id="reItq1uxvdhWXAtUSL_b-4" value="Users" style="rounded=1;whiteSpace=wrap;html=1;" vertex="1" parent="1">
          <mxGeometry x="-86" y="365" width="120" height="30" as="geometry" />
        </mxCell>
      </root>
    </mxGraphModel>
  </diagram>
</mxfile>
